<svg height="511pt" viewBox="1 0 511.99999 511" width="511pt" xmlns="http://www.w3.org/2000/svg"><path d="m440.523438 392.183594c25.800781 0 50.105468-6.332032 71.476562-17.535156-42.984375 60.941406-113.925781 100.746093-194.175781 100.746093-131.136719 0-237.445313-106.308593-237.445313-237.449219 0-131.136718 106.308594-237.445312 237.445313-237.445312 80.25 0 151.191406 39.804688 194.175781 100.746094-21.371094-11.203125-45.675781-17.535156-71.476562-17.535156-85.179688 0-154.234376 69.054687-154.234376 154.238281 0 85.179687 69.054688 154.234375 154.234376 154.234375zm0 0" fill="#f96eb3"/><path d="m344.507812 431.636719c0 43.914062-35.589843 79.507812-79.496093 79.507812h-110.351563s-.03125 0-.070312 0h-70.308594c-46.542969 0-84.28125-26.484375-84.28125-59.15625 0-32.617187 37.59375-59.0625 84.011719-59.15625 2.304687-54.449219 32.410156-98.40625 70.660156-104.226562 2.859375-.4375 5.757813-.667969 8.6875-.667969 33.234375 0 61.703125 28.664062 73.582031 69.328125 8.722656-3.296875 18.183594-5.113281 28.070313-5.113281 43.90625 0 79.496093 35.589844 79.496093 79.484375zm0 0" fill="#555a80"/><path d="m154.589844 511.144531h-70.308594c-46.542969 0-84.28125-26.484375-84.28125-59.15625 0-32.617187 37.59375-59.0625 84.011719-59.15625 2.304687-54.449219 32.410156-98.40625 70.660156-104.226562 2.859375-.4375 5.757813-.667969 8.6875-.667969-20.515625 0-52.507813 71.328125-39.292969 117.914062 0 0-65.371094-8.40625-65.371094 48.683594 0 56.148438 92.816407 56.609375 95.894532 56.609375zm0 0" fill="#353959"/></svg>